<svg xmlns="http://www.w3.org/2000/svg" width="35.373" height="9.243" viewBox="0 0 35.373 9.243">
  <path id="Path_804" data-name="Path 804" d="M1.066,0H7.254l.221-1.586H3V-8.957H1.066ZM12.441-9.087a4.268,4.268,0,0,0-4.407,4.6C8.034-1.911,9.5.13,12.324.13c2.912,0,4.407-2.145,4.407-4.641C16.731-7.254,15.067-9.087,12.441-9.087Zm-.078,1.573c1.664,0,2.366,1.326,2.366,3.029,0,1.6-.611,3.042-2.34,3.042-1.586,0-2.353-1.326-2.353-3.081S10.738-7.514,12.363-7.514Zm13.858,2.5H22.36v1.586h1.963v.091a1.776,1.776,0,0,1-1.963,1.95c-1.781,0-2.379-1.521-2.379-3.068,0-1.573.52-3.12,2.366-3.12A1.815,1.815,0,0,1,24.31-6.266h1.937c-.208-1.521-1.573-2.821-3.874-2.821-2.821,0-4.394,2.028-4.394,4.719,0,2.548,1.456,4.524,4.056,4.524a3.04,3.04,0,0,0,2.613-1.04A4.829,4.829,0,0,0,24.8,0h1.417Zm5.928-4.069a4.268,4.268,0,0,0-4.407,4.6c0,2.574,1.469,4.615,4.29,4.615,2.912,0,4.407-2.145,4.407-4.641C36.439-7.254,34.775-9.087,32.149-9.087Zm-.078,1.573c1.664,0,2.366,1.326,2.366,3.029,0,1.6-.611,3.042-2.34,3.042-1.586,0-2.353-1.326-2.353-3.081S30.446-7.514,32.071-7.514Z" transform="translate(-1.066 9.087)" fill="#fff"/>
</svg>
