<svg xmlns="http://www.w3.org/2000/svg" width="91.063" height="9.902" viewBox="0 0 91.063 9.902">
  <path id="Path_391" data-name="Path 391" d="M2.266-9.356,3.5-4l.267,1.492.273-1.46L5.1-9.356H7.16L8.271-4l.286,1.492.286-1.435,1.25-5.415H12.08L9.445,0H7.579L6.449-5.472l-.33-1.809-.33,1.809L4.659,0H2.844L.19-9.356ZM17.4-1.4a2.233,2.233,0,0,0,1.844-.857,3.829,3.829,0,0,0,.682-2.437,3.832,3.832,0,0,0-.682-2.434,2.23,2.23,0,0,0-1.844-.86,2.26,2.26,0,0,0-1.854.857,3.792,3.792,0,0,0-.692,2.438,3.792,3.792,0,0,0,.692,2.438A2.26,2.26,0,0,0,17.4-1.4ZM21.88-4.691A5.06,5.06,0,0,1,20.465-.832,4.08,4.08,0,0,1,17.4.26,4.08,4.08,0,0,1,14.333-.832a5.047,5.047,0,0,1-1.422-3.859A4.948,4.948,0,0,1,14.333-8.55,4.08,4.08,0,0,1,17.4-9.642,4.08,4.08,0,0,1,20.465-8.55,4.961,4.961,0,0,1,21.88-4.691Zm3.447-3.041v2.514h2.215a2.469,2.469,0,0,0,.99-.152,1.042,1.042,0,0,0,.584-1.054,1.163,1.163,0,0,0-.565-1.143,2.135,2.135,0,0,0-.952-.165Zm2.679-1.625a4.276,4.276,0,0,1,1.514.241,2.365,2.365,0,0,1,.9.654,2.9,2.9,0,0,1,.482.787,2.565,2.565,0,0,1,.178.984,2.8,2.8,0,0,1-.336,1.311,1.88,1.88,0,0,1-1.111.911,1.747,1.747,0,0,1,.917.74,3.078,3.078,0,0,1,.27,1.463v.628a4.807,4.807,0,0,0,.051.87.781.781,0,0,0,.355.533V0H29.072q-.089-.311-.127-.5a4.607,4.607,0,0,1-.083-.806l-.013-.87a1.7,1.7,0,0,0-.327-1.193,1.734,1.734,0,0,0-1.177-.3H25.327V0H23.417V-9.356Zm4.754,0h1.955v7.674h4.634V0H32.76ZM42.6-7.731v6.106h1.8a1.947,1.947,0,0,0,1.93-1.365,4.813,4.813,0,0,0,.3-1.784,4.391,4.391,0,0,0-.448-2.193A1.889,1.889,0,0,0,44.4-7.731Zm2.133-1.625a4.918,4.918,0,0,1,1.447.2,3.089,3.089,0,0,1,1.593,1.187,4.164,4.164,0,0,1,.667,1.511,7.252,7.252,0,0,1,.178,1.549,6.219,6.219,0,0,1-.749,3.161A3.38,3.38,0,0,1,44.732,0H40.7V-9.356Zm8.938,0h2.05l3.726,6.532V-9.356h1.822V0H59.313L55.491-6.646V0H53.669ZM70.008-7.7H65.057v1.987H69.6v1.625H65.057v2.406h5.18V0h-7.09V-9.356h6.862Zm3.028-1.657L74.274-4l.267,1.492.273-1.46,1.054-5.389H77.93L79.041-4l.286,1.492.286-1.435,1.25-5.415H82.85L80.215,0H78.349l-1.13-5.472-.33-1.809-.33,1.809L75.429,0H73.614L70.96-9.356Zm12.41,6.468a1.921,1.921,0,0,0,.349.958,2.009,2.009,0,0,0,1.631.578A3.443,3.443,0,0,0,88.55-1.5a1.086,1.086,0,0,0,.819-1.085.8.8,0,0,0-.406-.717,4.369,4.369,0,0,0-1.276-.438l-.99-.222a6.258,6.258,0,0,1-2.019-.717,2.281,2.281,0,0,1-.946-2.025A2.7,2.7,0,0,1,84.646-8.8a3.865,3.865,0,0,1,2.685-.832,4.082,4.082,0,0,1,2.523.784A2.8,2.8,0,0,1,90.949-6.57H89.07a1.342,1.342,0,0,0-.736-1.2A2.469,2.469,0,0,0,87.2-8a2.121,2.121,0,0,0-1.206.3.97.97,0,0,0-.451.851.805.805,0,0,0,.444.749,5.439,5.439,0,0,0,1.219.387l1.612.387a4.168,4.168,0,0,1,1.6.679,2.288,2.288,0,0,1,.838,1.911,2.7,2.7,0,0,1-.981,2.13A4.109,4.109,0,0,1,87.5.241a4.494,4.494,0,0,1-2.875-.835A2.774,2.774,0,0,1,83.58-2.888Z" transform="translate(-0.19 9.642)" fill="#fa6980"/>
</svg>
